<svg width="13" height="14" viewBox="0 0 13 14" fill="none" xmlns="http://www.w3.org/2000/svg">
<path d="M11.3978 5.98875L11.9923 6.64536C12.2441 6.92338 12.2441 7.37295 11.9923 7.64802L6.78865 13.3978C6.5369 13.6758 6.12982 13.6758 5.88074 13.3978L0.677051 7.65097C0.425302 7.37295 0.425302 6.92338 0.677051 6.64831L1.27161 5.9917C1.52603 5.71072 1.94115 5.71664 2.19022 6.00354L5.26209 9.5646L5.26209 1.06418C5.26209 0.670804 5.54865 0.354331 5.90485 0.354331L6.76187 0.354331C7.11806 0.354332 7.40463 0.670805 7.40463 1.06418L7.40463 9.5646L10.4792 6.00058C10.7282 5.71072 11.1434 5.70481 11.3978 5.98875Z" fill="#2597D9"/>
</svg>
